<svg width="27" height="27" viewBox="0 0 27 27" fill="none" xmlns="http://www.w3.org/2000/svg">
<ellipse cx="13.5" cy="2.34783" rx="2.45454" ry="2.34783" fill="#ED7635"/>
<ellipse cx="13.5" cy="13.5" rx="2.45454" ry="2.34783" fill="#ED7635"/>
<ellipse cx="13.5" cy="24.6521" rx="2.45454" ry="2.34783" fill="#ED7635"/>
<rect x="12.8865" y="5.86957" width="1.22727" height="4.1087" fill="#ED7635"/>
<rect x="12.8865" y="17.0217" width="1.22727" height="4.1087" fill="#ED7635"/>
<ellipse cx="2.37496" cy="2.4283" rx="2.37496" ry="2.4283" transform="matrix(0.516756 0.856133 -0.875384 0.483429 24.5454 4.71671)" fill="#ED7635"/>
<ellipse cx="2.37496" cy="2.4283" rx="2.37496" ry="2.4283" transform="matrix(0.516756 0.856133 -0.875384 0.483429 4.35132 15.8689)" fill="#ED7635"/>
<rect width="1.18748" height="4.24953" transform="matrix(0.516756 0.856133 -0.875384 0.483429 20.1516 9.17645)" fill="#ED7635"/>
<rect width="1.18748" height="4.24953" transform="matrix(0.516756 0.856133 -0.875384 0.483429 10.0547 14.7526)" fill="#ED7635"/>
<ellipse cx="2.37496" cy="2.4283" rx="2.37496" ry="2.4283" transform="matrix(-0.516756 0.856133 -0.875384 -0.483429 26.9001 18.2167)" fill="#ED7635"/>
<ellipse cx="2.37496" cy="2.4283" rx="2.37496" ry="2.4283" transform="matrix(-0.516756 0.856133 -0.875384 -0.483429 6.70605 7.06454)" fill="#ED7635"/>
<rect width="1.18748" height="4.24953" transform="matrix(-0.516756 0.856133 -0.875384 -0.483429 20.6655 16.8069)" fill="#ED7635"/>
<rect width="1.18748" height="4.24953" transform="matrix(-0.516756 0.856133 -0.875384 -0.483429 10.5684 11.2308)" fill="#ED7635"/>
</svg>
