<svg width="96" height="96" viewBox="0 0 96 96" fill="none" xmlns="http://www.w3.org/2000/svg">
<path d="M64 84V64C64 62.1144 64 61.1716 63.4142 60.5858C62.8284 60 61.8856 60 60 60H32C30.1144 60 29.1716 60 28.5858 60.5858C28 61.1716 28 62.1144 28 64V84" stroke="#ED7635" stroke-width="6"/>
<path d="M28 32H48" stroke="#ED7635" stroke-width="6" stroke-linecap="round"/>
<path d="M12 18C12 15.1716 12 13.7574 12.8787 12.8787C13.7574 12 15.1716 12 18 12H67.1716C67.5803 12 67.7847 12 67.9685 12.0761C68.1522 12.1522 68.2968 12.2968 68.5858 12.5858L83.4142 27.4142C83.7032 27.7032 83.8478 27.8478 83.9239 28.0315C84 28.2153 84 28.4197 84 28.8284V78C84 80.8284 84 82.2426 83.1213 83.1213C82.2426 84 80.8284 84 78 84H18C15.1716 84 13.7574 84 12.8787 83.1213C12 82.2426 12 80.8284 12 78V18Z" stroke="#ED7635" stroke-width="6"/>
</svg>
